<svg xmlns="http://www.w3.org/2000/svg" xmlns:xlink="http://www.w3.org/1999/xlink" width="180" height="180" viewBox="0 0 180 180">
  <defs>
    <clipPath id="clip-logo_180">
      <rect width="180" height="180"/>
    </clipPath>
  </defs>
  <g id="logo_180" data-name="logo@180" clip-path="url(#clip-logo_180)">
    <rect width="180" height="180" fill="#fff"/>
    <g id="Group_1" data-name="Group 1" transform="translate(-224.166 -247.877)">
      <path id="Subtraction_2" data-name="Subtraction 2" d="M85.079,170.159h0L47.938,133.017l47.093,27.189-9.952,9.952Zm14.576-14.576h0L30.681,115.76,13.938,99.017,52.017,33.062l19.3-19.3,65.145,37.611,19.3,19.3L116.4,138.839,99.655,155.583Zm34-34h0L160.378,75.3l9.781,9.781ZM9.314,94.393h0L0,85.079,34.759,50.32ZM119.2,34.119,75.937,9.143,85.079,0,119.2,34.119Z" transform="translate(228.421 251.421)" fill="#a03157"/>
      <text id="K" transform="translate(291.166 355.877)" fill="#f4f4f4" font-size="60" font-family="Georgia"><tspan x="0" y="0">K</tspan></text>
    </g>
  </g>
</svg>
